<svg width="21" height="23" viewBox="0 0 21 23" fill="none" xmlns="http://www.w3.org/2000/svg">
<path d="M12.7737 23H7.19973C2.15527 23 0 20.5469 0 14.8055V8.4614C0 2.71998 2.15527 0.266919 7.19973 0.266919H9.05772C9.43861 0.266919 9.75447 0.626419 9.75447 1.05993C9.75447 1.49345 9.43861 1.85295 9.05772 1.85295H7.19973C2.91705 1.85295 1.3935 3.58701 1.3935 8.4614V14.8055C1.3935 19.6799 2.91705 21.414 7.19973 21.414H12.7737C17.0564 21.414 18.5799 19.6799 18.5799 14.8055V12.6908C18.5799 12.2573 18.8958 11.8978 19.2767 11.8978C19.6576 11.8978 19.9734 12.2573 19.9734 12.6908V14.8055C19.9734 20.5469 17.8182 23 12.7737 23Z" fill="#292D32"/>
<path d="M6.73463 17.6499C6.16794 17.6499 5.6477 17.4173 5.26682 16.9943C4.81161 16.4762 4.61652 15.7255 4.71871 14.9325L5.11818 11.7499C5.1925 11.1366 5.54551 10.3436 5.9264 9.91008L13.2469 1.5781C15.0956 -0.526033 16.9721 -0.526033 18.8208 1.5781C19.8334 2.73061 20.2886 3.90427 20.1957 5.07794C20.1121 6.02955 19.6662 6.96002 18.8208 7.91164L11.5003 16.2436C11.1194 16.6771 10.4227 17.0789 9.88388 17.1635L7.08765 17.6182C6.96688 17.6499 6.84611 17.6499 6.73463 17.6499ZM14.2316 2.69889L6.91114 11.0309C6.73463 11.2318 6.53025 11.697 6.49309 11.9719L6.09362 15.1545C6.05646 15.4612 6.1122 15.7149 6.25155 15.8735C6.3909 16.0322 6.61386 16.0956 6.88327 16.0533L9.6795 15.5986C9.92104 15.5563 10.3391 15.3237 10.5063 15.1228L17.8268 6.79085C18.4307 6.10357 18.7465 5.4903 18.793 4.91933C18.8487 4.23205 18.5328 3.50248 17.8268 2.68832C16.3404 0.996556 15.3185 1.47236 14.2316 2.69889Z" fill="#292D32"/>
<path d="M17.279 9.33877C17.2139 9.33877 17.1489 9.3282 17.0932 9.30705C14.6499 8.52461 12.7083 6.31474 12.0208 3.5339C11.9186 3.11096 12.1323 2.67745 12.5039 2.55057C12.8755 2.43426 13.2564 2.67745 13.3586 3.10039C13.916 5.35255 15.486 7.13948 17.4648 7.77389C17.8364 7.8902 18.05 8.33429 17.9478 8.75723C17.8642 9.11673 17.5855 9.33877 17.279 9.33877Z" fill="#292D32"/>
</svg>
