<svg width="25" height="22" viewBox="0 0 25 22" fill="none" xmlns="http://www.w3.org/2000/svg">
<path d="M24.0825 5.42803C24.0579 5.42803 24.0208 5.42803 23.9838 5.42803C17.4568 4.90306 10.942 4.70495 4.48895 5.22993L1.9719 5.42803C1.45368 5.46766 0.997158 5.1705 0.947804 4.75448C0.89845 4.33846 1.26861 3.98187 1.77448 3.94225L4.29154 3.74415C10.8557 3.20927 17.5061 3.41728 24.1689 3.94225C24.6748 3.98187 25.0449 4.34837 24.9956 4.75448C24.9586 5.14078 24.5514 5.42803 24.0825 5.42803Z" fill="#292D32"/>
<path d="M8.66068 4.42763C8.61132 4.42763 8.56197 4.42763 8.50028 4.41772C8.00674 4.34839 7.66126 3.96208 7.74763 3.56587L8.01908 2.26829C8.21649 1.31739 8.48794 0 11.3628 0H14.5954C17.4827 0 17.7541 1.36692 17.9392 2.2782L18.2106 3.56587C18.297 3.97199 17.9515 4.35829 17.458 4.41772C16.9521 4.48706 16.4709 4.20971 16.3969 3.81351L16.1254 2.52583C15.9527 1.66407 15.9157 1.49569 14.6078 1.49569H11.3751C10.0673 1.49569 10.0426 1.63436 9.85751 2.51592L9.57373 3.8036C9.4997 4.17009 9.10486 4.42763 8.66068 4.42763Z" fill="#292D32"/>
<path d="M16.9394 21.2963H9.0181C4.71196 21.2963 4.53922 19.3846 4.4035 17.8394L3.6015 7.86481C3.56448 7.45869 3.95931 7.10211 4.46519 7.0724C4.98341 7.05259 5.41526 7.35965 5.45227 7.76576L6.25427 17.7403C6.39 19.2459 6.43935 19.8105 9.0181 19.8105H16.9394C19.5305 19.8105 19.5799 19.2459 19.7033 17.7403L20.5053 7.76576C20.5423 7.35965 20.9865 7.05259 21.4923 7.0724C21.9982 7.10211 22.393 7.44879 22.356 7.86481L21.554 17.8394C21.4183 19.3846 21.2456 21.2963 16.9394 21.2963Z" fill="#292D32"/>
<path d="M15.0266 15.8483H10.9179C10.412 15.8483 9.99246 15.5116 9.99246 15.1054C9.99246 14.6993 10.412 14.3626 10.9179 14.3626H15.0266C15.5325 14.3626 15.952 14.6993 15.952 15.1054C15.952 15.5116 15.5325 15.8483 15.0266 15.8483Z" fill="#292D32"/>
<path d="M16.0629 11.8863H9.89365C9.38777 11.8863 8.96826 11.5495 8.96826 11.1434C8.96826 10.7372 9.38777 10.4005 9.89365 10.4005H16.0629C16.5688 10.4005 16.9883 10.7372 16.9883 11.1434C16.9883 11.5495 16.5688 11.8863 16.0629 11.8863Z" fill="#292D32"/>
</svg>
