<svg width="280" height="89" viewBox="0 0 280 89" fill="none" xmlns="http://www.w3.org/2000/svg">
<path d="M0 57V0.359997H5.76V57H0ZM8.64 57V0.359997H17.28V57H8.64ZM25.92 57V0.359997H28.8V57H25.92ZM14.304 67.56H8.064V65.352H23.424V67.56H16.896V87.624H14.304V67.56ZM31.6875 57V0.359997H34.5675V57H31.6875ZM43.2075 57V0.359997H54.7275V57H43.2075ZM57.6075 57V0.359997H60.4875V57H57.6075ZM47.5275 87.912C46.0555 87.912 44.7435 87.56 43.5915 86.856C42.5035 86.152 41.6395 85.16 40.9995 83.88C40.2955 82.6 39.9435 81.128 39.9435 79.464C39.9435 77.8 40.2955 76.328 40.9995 75.048C41.6395 73.768 42.5035 72.776 43.5915 72.072C44.7435 71.304 46.0555 70.92 47.5275 70.92C48.9995 70.92 50.2795 71.304 51.3675 72.072C52.5195 72.776 53.4155 73.768 54.0555 75.048C54.6955 76.328 55.0155 77.8 55.0155 79.464C55.0155 81.128 54.6955 82.6 54.0555 83.88C53.4155 85.16 52.5195 86.152 51.3675 86.856C50.2795 87.56 48.9995 87.912 47.5275 87.912ZM47.5275 85.8C48.4235 85.8 49.2555 85.512 50.0235 84.936C50.7275 84.424 51.3035 83.688 51.7515 82.728C52.1355 81.704 52.3275 80.584 52.3275 79.368C52.3275 77.512 51.8795 76.008 50.9835 74.856C50.0875 73.704 48.9355 73.128 47.5275 73.128C46.1195 73.128 44.9675 73.704 44.0715 74.856C43.1755 76.008 42.7275 77.512 42.7275 79.368C42.7275 80.584 42.9195 81.704 43.3035 82.728C43.7515 83.688 44.3275 84.424 45.0315 84.936C45.7355 85.512 46.5675 85.8 47.5275 85.8ZM63.375 57V0.359997H66.255V57H63.375ZM69.135 57V0.359997H74.895V57H69.135ZM83.535 57V0.359997H86.415V57H83.535ZM72.207 65.352H77.391C79.247 65.352 80.687 65.608 81.711 66.12C82.799 66.632 83.727 67.4 84.495 68.424C85.967 70.344 86.703 73.064 86.703 76.584C86.575 80.232 85.743 82.984 84.207 84.84C82.671 86.76 80.271 87.688 77.007 87.624H72.207V65.352ZM76.815 85.704C81.743 85.704 84.207 82.728 84.207 76.776C84.207 73.768 83.663 71.464 82.575 69.864C81.423 68.264 79.631 67.464 77.199 67.464H74.607V85.704H76.815ZM95.0625 57V0.359997H97.9425V57H95.0625ZM106.583 57V0.359997H118.103V57H106.583ZM120.983 57V0.359997H123.863V57H120.983ZM110.903 87.912C109.431 87.912 108.119 87.56 106.967 86.856C105.879 86.152 105.015 85.16 104.375 83.88C103.671 82.6 103.319 81.128 103.319 79.464C103.319 77.8 103.671 76.328 104.375 75.048C105.015 73.768 105.879 72.776 106.967 72.072C108.119 71.304 109.431 70.92 110.903 70.92C112.375 70.92 113.655 71.304 114.743 72.072C115.895 72.776 116.791 73.768 117.431 75.048C118.071 76.328 118.391 77.8 118.391 79.464C118.391 81.128 118.071 82.6 117.431 83.88C116.791 85.16 115.895 86.152 114.743 86.856C113.655 87.56 112.375 87.912 110.903 87.912ZM110.903 85.8C111.799 85.8 112.631 85.512 113.399 84.936C114.103 84.424 114.679 83.688 115.127 82.728C115.511 81.704 115.703 80.584 115.703 79.368C115.703 77.512 115.255 76.008 114.359 74.856C113.463 73.704 112.311 73.128 110.903 73.128C109.495 73.128 108.343 73.704 107.447 74.856C106.551 76.008 106.103 77.512 106.103 79.368C106.103 80.584 106.295 81.704 106.679 82.728C107.127 83.688 107.703 84.424 108.407 84.936C109.111 85.512 109.943 85.8 110.903 85.8ZM126.75 57V0.359997H132.51V57H126.75ZM135.39 57V0.359997H141.15V57H135.39ZM146.91 57V0.359997H152.67V57H146.91ZM158.438 57V0.359997H161.318V57H158.438ZM169.958 57V0.359997H175.718V57H169.958ZM178.598 57V0.359997H187.238V57H178.598ZM167.75 65.352H170.63V65.64C170.502 65.768 170.406 65.928 170.342 66.12C170.342 66.248 170.342 66.536 170.342 66.984V85.512H180.998V87.624H167.75V65.352ZM190.125 57V0.359997H193.005V57H190.125ZM204.525 57V0.359997H210.285V57H204.525ZM213.165 57V0.359997H216.045V57H213.165ZM200.589 85.512H204.813V73.416H200.781V71.304H207.309V85.512H211.149V87.624H200.589V85.512ZM205.965 67.848C205.453 67.848 205.005 67.688 204.621 67.368C204.301 66.984 204.141 66.536 204.141 66.024C204.141 65.512 204.301 65.096 204.621 64.776C204.941 64.392 205.389 64.2 205.965 64.2C206.413 64.2 206.829 64.392 207.213 64.776C207.597 65.16 207.789 65.576 207.789 66.024C207.789 66.536 207.597 66.984 207.213 67.368C206.829 67.688 206.413 67.848 205.965 67.848ZM221.812 57V0.359997H224.693V57H221.812ZM227.573 57V0.359997H239.093V57H227.573ZM244.853 57V0.359997H247.733V57H244.853ZM237.653 88.008C234.901 88.008 232.597 87.144 230.741 85.416L232.181 83.016L232.373 82.632L232.661 82.824C232.661 82.888 232.661 82.984 232.661 83.112C232.725 83.304 232.789 83.464 232.853 83.592C232.981 83.784 233.109 83.976 233.237 84.168C233.813 84.68 234.453 85.096 235.157 85.416C235.861 85.672 236.725 85.8 237.749 85.8C239.029 85.8 240.053 85.576 240.821 85.128C241.525 84.68 241.877 84.04 241.877 83.208C241.877 82.504 241.589 81.928 241.013 81.48C240.437 81.032 239.349 80.584 237.749 80.136C233.653 78.92 231.605 77.224 231.605 75.048C231.605 73.768 232.149 72.776 233.237 72.072C234.261 71.304 235.733 70.92 237.653 70.92C239.125 70.92 240.373 71.144 241.397 71.592C242.421 71.976 243.349 72.616 244.181 73.512L242.645 75.24L242.453 75.528L242.261 75.336C242.261 75.08 242.197 74.888 242.069 74.76C242.005 74.568 241.845 74.376 241.589 74.184C241.013 73.736 240.405 73.416 239.765 73.224C239.061 72.968 238.389 72.84 237.749 72.84C236.725 72.84 235.861 73.032 235.157 73.416C234.517 73.736 234.197 74.216 234.197 74.856C234.197 75.496 234.549 76.04 235.253 76.488C235.893 77 237.077 77.512 238.805 78.024C240.853 78.664 242.293 79.336 243.125 80.04C244.021 80.744 244.469 81.704 244.469 82.92C244.469 84.392 243.893 85.608 242.741 86.568C241.589 87.528 239.893 88.008 237.653 88.008ZM253.5 57V0.359997H256.38V57H253.5ZM262.14 57V0.359997H273.66V57H262.14ZM276.54 57V0.359997H279.42V57H276.54ZM276.252 86.088C274.716 87.304 272.988 87.912 271.068 87.912C269.276 87.912 267.996 87.368 267.228 86.28C266.46 85.128 266.076 83.336 266.076 80.904C266.076 80.456 266.108 79.752 266.172 78.792L266.556 73.416H262.908V71.304H266.652L266.94 66.984L269.724 66.504H270.108V66.696C269.98 66.888 269.884 67.08 269.82 67.272C269.692 67.464 269.628 67.72 269.628 68.04L269.244 71.304H274.62V73.416H269.052L268.764 78.984C268.7 79.944 268.668 80.552 268.668 80.808C268.668 82.728 268.892 84.04 269.34 84.744C269.788 85.384 270.492 85.704 271.452 85.704C272.156 85.704 272.828 85.576 273.468 85.32C274.044 85.064 274.716 84.648 275.484 84.072L276.252 86.088Z" fill="black"/>
</svg>
